<svg width="11" height="11" viewBox="0 0 11 11" fill="none" xmlns="http://www.w3.org/2000/svg">
<path d="M10.5423 4.5835C10.5423 4.34038 10.4457 4.10722 10.2738 3.93532C10.1019 3.76341 9.86877 3.66683 9.62565 3.66683H6.72898L7.16898 1.57225C7.17815 1.52641 7.18273 1.476 7.18273 1.42558C7.18273 1.23766 7.10482 1.0635 6.98107 0.939746L6.49523 0.458496L3.4794 3.47433C3.30982 3.64391 3.20898 3.87308 3.20898 4.12516V8.7085C3.20898 8.95161 3.30556 9.18477 3.47747 9.35668C3.64938 9.52859 3.88254 9.62516 4.12565 9.62516H8.25065C8.63107 9.62516 8.95648 9.396 9.09398 9.066L10.4782 5.83475C10.5194 5.72933 10.5423 5.61933 10.5423 5.50016V4.5835ZM0.458984 9.62516H2.29232V4.12516H0.458984V9.62516Z" fill="#949494"/>
</svg>
