<svg width="15" height="14" viewBox="0 0 15 14" fill="none" xmlns="http://www.w3.org/2000/svg">
<path d="M2.83268 11.6663C2.51185 11.6663 2.23729 11.5522 2.00902 11.3239C1.78074 11.0956 1.6664 10.8209 1.66602 10.4997V3.49967C1.66602 3.17884 1.78035 2.90429 2.00902 2.67601C2.23768 2.44773 2.51224 2.3334 2.83268 2.33301H12.166C12.4868 2.33301 12.7616 2.44734 12.9903 2.67601C13.2189 2.90467 13.3331 3.17923 13.3327 3.49967V10.4997C13.3327 10.8205 13.2185 11.0953 12.9903 11.3239C12.762 11.5526 12.4872 11.6667 12.166 11.6663H2.83268ZM7.49935 7.58301L12.166 4.66634V3.49967L7.49935 6.41634L2.83268 3.49967V4.66634L7.49935 7.58301Z" fill="#E5E5E5"/>
</svg>
