<svg width="14" height="14" viewBox="0 0 14 14" fill="none" xmlns="http://www.w3.org/2000/svg">
<path d="M2.33268 11.6663C2.01185 11.6663 1.73729 11.5522 1.50902 11.3239C1.28074 11.0956 1.1664 10.8209 1.16602 10.4997V3.49967C1.16602 3.17884 1.28035 2.90429 1.50902 2.67601C1.73768 2.44773 2.01224 2.3334 2.33268 2.33301H11.666C11.9868 2.33301 12.2616 2.44734 12.4903 2.67601C12.7189 2.90467 12.8331 3.17923 12.8327 3.49967V10.4997C12.8327 10.8205 12.7185 11.0953 12.4903 11.3239C12.262 11.5526 11.9872 11.6667 11.666 11.6663H2.33268ZM6.99935 7.58301L11.666 4.66634V3.49967L6.99935 6.41634L2.33268 3.49967V4.66634L6.99935 7.58301Z" fill="#E5E5E5"/>
</svg>
