<svg width="14" height="14" viewBox="0 0 14 14" fill="none" xmlns="http://www.w3.org/2000/svg">
<path d="M12.8327 7.00033C12.8324 5.45332 12.2177 3.96977 11.1238 2.87588C10.0299 1.78198 8.54635 1.1673 6.99935 1.16699V2.33366C7.92224 2.33387 8.82436 2.60761 9.59174 3.12031C10.3591 3.633 10.9573 4.36164 11.3108 5.21416C11.5453 5.78044 11.666 6.38738 11.666 7.00033H12.8327ZM1.16602 5.83366V2.91699C1.16602 2.76228 1.22747 2.61391 1.33687 2.50451C1.44627 2.39512 1.59464 2.33366 1.74935 2.33366H4.66602C4.82073 2.33366 4.9691 2.39512 5.07849 2.50451C5.18789 2.61391 5.24935 2.76228 5.24935 2.91699V5.25033C5.24935 5.40504 5.18789 5.55341 5.07849 5.6628C4.9691 5.7722 4.82073 5.83366 4.66602 5.83366H3.49935C3.49935 7.07134 3.99101 8.25832 4.86618 9.13349C5.74135 10.0087 6.92834 10.5003 8.16602 10.5003V9.33366C8.16602 9.17895 8.22747 9.03058 8.33687 8.92118C8.44627 8.81178 8.59464 8.75033 8.74935 8.75033H11.0827C11.2374 8.75033 11.3858 8.81178 11.4952 8.92118C11.6046 9.03058 11.666 9.17895 11.666 9.33366V12.2503C11.666 12.405 11.6046 12.5534 11.4952 12.6628C11.3858 12.7722 11.2374 12.8337 11.0827 12.8337H8.16602C4.30027 12.8337 1.16602 9.69941 1.16602 5.83366Z" fill="#E5E5E5"/>
<path d="M10.2334 5.66067C10.4095 6.08523 10.5001 6.54037 10.5 7H9.45C9.45008 6.67824 9.38676 6.35962 9.26366 6.06234C9.14056 5.76505 8.9601 5.49494 8.73258 5.26742C8.50506 5.0399 8.23495 4.85944 7.93766 4.73634C7.64038 4.61324 7.32176 4.54992 7 4.55V3.5C7.69221 3.50004 8.36887 3.70533 8.94441 4.08993C9.51995 4.47452 9.96853 5.02114 10.2334 5.66067Z" fill="#E5E5E5"/>
</svg>
