<svg width="15" height="16" viewBox="0 0 15 16" fill="none" xmlns="http://www.w3.org/2000/svg">
<path d="M7.50089 2.66657C8.81339 2.66657 10.0634 3.1999 11.0009 4.1999C12.9384 6.26657 12.9384 9.66657 11.0009 11.7332C9.87589 12.9999 8.31339 13.4666 6.81339 13.2666L7.12589 11.9332C8.18839 12.0666 9.31339 11.6666 10.1259 10.7999C11.5634 9.26657 11.5634 6.73324 10.1259 5.13324C9.43839 4.3999 8.43839 3.9999 7.50089 3.9999V7.06657L4.37589 3.73324L7.50089 0.399902V2.66657ZM3.93839 11.7332C2.31339 9.9999 2.06339 7.33324 3.18839 5.26657L4.12589 6.26657C3.43839 7.73323 3.68839 9.5999 4.87589 10.7999C5.18839 11.1332 5.56339 11.3999 6.00089 11.5999L5.62589 12.9332C5.00089 12.6666 4.43839 12.2666 3.93839 11.7332Z" fill="#949494"/>
</svg>
