<svg width="24" height="24" viewBox="0 0 24 24" fill="none" xmlns="http://www.w3.org/2000/svg">
<g clip-path="url(#clip0_2590_47)">
<path d="M19.3566 16.9989H17.6051C16.9424 16.9989 16.7431 16.4908 15.5547 15.3656C14.5174 14.4188 14.0793 14.3006 13.8164 14.3006C13.4538 14.3006 13.3542 14.395 13.3542 14.8689V16.3601C13.3542 16.7636 13.2161 17 12.1033 17C11.0232 16.9313 9.97591 16.6206 9.04755 16.0936C8.11919 15.5666 7.33635 14.8383 6.76351 13.9687C5.40357 12.3662 4.45731 10.4853 4 8.47566C4 8.22674 4.09964 8.0017 4.60024 8.0017H6.35055C6.80073 8.0017 6.96279 8.19151 7.13926 8.62909C7.98921 10.9977 9.43939 13.0572 10.0276 13.0572C10.2521 13.0572 10.3518 12.9629 10.3518 12.4298V9.99072C10.2773 8.878 9.65188 8.78367 9.65188 8.38132C9.6599 8.27499 9.71143 8.17582 9.79551 8.10492C9.87959 8.03402 9.98957 7.99699 10.1021 8.0017H12.8536C13.2293 8.0017 13.3542 8.17901 13.3542 8.60523V11.8968C13.3542 12.2525 13.5162 12.3707 13.6291 12.3707C13.8536 12.3707 14.0288 12.2525 14.4418 11.8615C15.329 10.8386 16.0529 9.69748 16.5931 8.47452C16.6482 8.32775 16.7526 8.20209 16.8902 8.11671C17.0279 8.03134 17.1912 7.99095 17.3554 8.0017H19.1057C19.6315 8.0017 19.7443 8.25061 19.6315 8.60523C18.9946 9.95597 18.2066 11.2382 17.2809 12.4298C17.0925 12.7026 17.0168 12.8447 17.2809 13.164C17.455 13.413 18.0685 13.8983 18.4814 14.3597C19.0817 14.9269 19.5799 15.5827 19.9568 16.301C20.1069 16.7625 19.856 16.9989 19.3566 16.9989Z" fill="white"/>
<path d="M15.6876 0H8.3244C1.5996 0 0 1.5996 0 8.3124V15.6756C0 22.3992 1.5876 24 8.3124 24H15.6756C22.3992 24 24 22.4124 24 15.6876V8.3244C24 1.5996 22.4124 0 15.6876 0ZM19.3752 17.124H17.6244C16.962 17.124 16.7628 16.5876 15.5748 15.3996C14.538 14.4 14.1 14.2752 13.8372 14.2752C13.4748 14.2752 13.3752 14.3748 13.3752 14.8752V16.4496C13.3752 16.8756 13.2372 17.1252 12.1248 17.1252C11.0452 17.0527 9.99831 16.7247 9.07032 16.1682C8.14233 15.6118 7.3598 14.8429 6.7872 13.9248C5.4278 12.2328 4.48193 10.247 4.0248 8.1252C4.0248 7.8624 4.1244 7.6248 4.6248 7.6248H6.3744C6.8244 7.6248 6.9864 7.8252 7.1628 8.2872C8.0124 10.788 9.462 12.9624 10.05 12.9624C10.2756 12.9624 10.374 12.8628 10.374 12.3V9.7248C10.2996 8.55 9.6756 8.4504 9.6756 8.0256C9.68362 7.91355 9.73496 7.80904 9.81875 7.73422C9.90253 7.65939 10.0122 7.62015 10.1244 7.6248H12.8748C13.2504 7.6248 13.3752 7.812 13.3752 8.262V11.7372C13.3752 12.1128 13.5372 12.2376 13.65 12.2376C13.8756 12.2376 14.0496 12.1128 14.4624 11.7C15.349 10.6187 16.0734 9.41409 16.6128 8.124C16.6679 7.96904 16.7723 7.83637 16.9098 7.74623C17.0474 7.6561 17.2107 7.61345 17.3748 7.6248H19.1256C19.65 7.6248 19.7616 7.8876 19.65 8.262C19.0134 9.68812 18.2257 11.0419 17.3004 12.3C17.112 12.588 17.0364 12.738 17.3004 13.0752C17.4756 13.338 18.0876 13.8504 18.5004 14.3376C19.1004 14.9364 19.5984 15.6288 19.9752 16.3872C20.1252 16.8744 19.8744 17.124 19.3752 17.124Z" fill="#2260BC"/>
</g>
<defs>
<clipPath id="clip0_2590_47">
<rect width="24" height="24" fill="white"/>
</clipPath>
</defs>
</svg>
