<svg>
    <symbol id="down-ico" viewBox="0 0 17 16" xmlns="http://www.w3.org/2000/svg">
        <path fill-rule="evenodd" clip-rule="evenodd"
              d="M8.64262 13.8536C8.44735 14.0488 8.13077 14.0488 7.93551 13.8536L3.93551 9.85355C3.74025 9.65829 3.74025 9.34171 3.93551 9.14645C4.13077 8.95118 4.44735 8.95118 4.64262 9.14645L7.78906 12.2929L7.78906 2.5C7.78906 2.22386 8.01292 2 8.28906 2C8.56521 2 8.78906 2.22386 8.78906 2.5L8.78906 12.2929L11.9355 9.14645C12.1308 8.95118 12.4474 8.95118 12.6426 9.14645C12.8379 9.34171 12.8379 9.65829 12.6426 9.85355L8.64262 13.8536Z"
        />
    </symbol>

    <symbol id="measuring" viewBox="0 0 24 24" xmlns="http://www.w3.org/2000/svg">
        <path d="M13.5 20H7C6.45 20 5.97933 19.8043 5.588 19.413C5.19667 19.0217 5.00067 18.5507 5 18V11.5C5 9.13333 5.825 7.125 7.475 5.475C9.125 3.825 11.1333 3 13.5 3C15.8667 3 17.875 3.825 19.525 5.475C21.175 7.125 22 9.13333 22 11.5C22 13.8667 21.175 15.875 19.525 17.525C17.875 19.175 15.8667 20 13.5 20ZM13.5 18C15.3 18 16.8333 17.3667 18.1 16.1C19.3667 14.8333 20 13.3 20 11.5C20 9.7 19.3667 8.16667 18.1 6.9C16.8333 5.63333 15.3 5 13.5 5C11.7 5 10.1667 5.63333 8.9 6.9C7.63333 8.16667 7 9.7 7 11.5V18H13.5ZM13.5 15C14.4667 15 15.2917 14.6583 15.975 13.975C16.6583 13.2917 17 12.4667 17 11.5C17 10.5333 16.6583 9.70833 15.975 9.025C15.2917 8.34167 14.4667 8 13.5 8C12.5333 8 11.7083 8.34167 11.025 9.025C10.3417 9.70833 10 10.5333 10 11.5C10 12.4667 10.3417 13.2917 11.025 13.975C11.7083 14.6583 12.5333 15 13.5 15ZM13.5 13C13.0833 13 12.729 12.8543 12.437 12.563C12.145 12.2717 11.9993 11.9173 12 11.5C12 11.0833 12.146 10.7293 12.438 10.438C12.73 10.1467 13.084 10.0007 13.5 10C13.9167 10 14.271 10.146 14.563 10.438C14.855 10.73 15.0007 11.084 15 11.5C15 11.9167 14.8543 12.271 14.563 12.563C14.2717 12.855 13.9173 13.0007 13.5 13ZM3 20C2.71667 20 2.47933 19.904 2.288 19.712C2.09667 19.52 2.00067 19.2827 2 19V16C2 15.7167 2.096 15.4793 2.288 15.288C2.48 15.0967 2.71733 15.0007 3 15C3.28333 15 3.521 15.096 3.713 15.288C3.905 15.48 4.00067 15.7173 4 16V19C4 19.2833 3.904 19.521 3.712 19.713C3.52 19.905 3.28267 20.0007 3 20Z"
        />
    </symbol>

    <symbol id="search-ico" viewBox="0 0 14 14" fill="none" xmlns="http://www.w3.org/2000/svg">
        <path fill-rule="evenodd" clip-rule="evenodd"
              d="M4.43954 1.6433C5.06641 1.38364 5.73827 1.25 6.41679 1.25C7.0953 1.25 7.76717 1.38364 8.39403 1.6433C9.02089 1.90295 9.59048 2.28354 10.0703 2.76332C10.55 3.2431 10.9306 3.81268 11.1903 4.43954C11.4499 5.06641 11.5836 5.73827 11.5836 6.41679C11.5836 7.0953 11.4499 7.76717 11.1903 8.39403C10.9946 8.86636 10.7303 9.30618 10.4067 9.69956L12.6037 11.8966C12.7989 12.0918 12.7989 12.4084 12.6037 12.6037C12.4084 12.7989 12.0918 12.7989 11.8966 12.6037L9.69957 10.4067C8.77882 11.1643 7.61942 11.5836 6.41679 11.5836C5.04647 11.5836 3.73228 11.0392 2.76332 10.0703C1.79436 9.1013 1.25 7.7871 1.25 6.41679C1.25 5.04647 1.79436 3.73228 2.76332 2.76332C3.2431 2.28354 3.81268 1.90295 4.43954 1.6433ZM6.41679 2.25C5.8696 2.25 5.32776 2.35778 4.82223 2.56718C4.31669 2.77658 3.85735 3.0835 3.47042 3.47042C2.689 4.25185 2.25 5.31169 2.25 6.41679C2.25 7.52189 2.689 8.58173 3.47042 9.36315C4.25185 10.1446 5.31169 10.5836 6.41679 10.5836C7.52189 10.5836 8.58173 10.1446 9.36315 9.36315C9.75007 8.97623 10.057 8.51688 10.2664 8.01135C10.4758 7.50581 10.5836 6.96398 10.5836 6.41679C10.5836 5.8696 10.4758 5.32776 10.2664 4.82223C10.057 4.31669 9.75007 3.85735 9.36315 3.47042C8.97623 3.0835 8.51688 2.77658 8.01135 2.56718C7.50581 2.35778 6.96398 2.25 6.41679 2.25Z"
              fill="#949494"/>
    </symbol>

    <symbol id="design" viewBox="0 0 14 14" fill="none" xmlns="http://www.w3.org/2000/svg">
        <g clip-path="url(#clip0_2686_9119)">
            <path d="M8.75 0.875H14V14H0V0.25293L8.75 9.00293V0.875ZM0.875 13.125H11.6279L0.875 2.37207V13.125ZM11.9971 12.25L12.8721 13.125H13.125V1.75H9.625V2.625H11.375V3.5H9.625V4.375H11.375V5.25H9.625V6.125H12.25V7H9.625V7.875H11.375V8.75H9.625V9.625H11.375V10.5H10.2471L11.1221 11.375H12.25V12.25H11.9971ZM2.625 7.25293L6.74707 11.375H2.625V7.25293ZM3.5 9.37207V10.5H4.62793L3.5 9.37207Z"
                  fill="white"/>
        </g>
        <defs>
            <clipPath id="clip0_2686_9119">
                <rect width="14" height="14" fill="white"/>
            </clipPath>
        </defs>
    </symbol>

    <symbol id="calculator" viewBox="0 0 14 14" xmlns="http://www.w3.org/2000/svg">
        <path fill-rule="evenodd" clip-rule="evenodd"
              d="M1.83398 5.1665C1.83398 4.89036 2.05784 4.6665 2.33398 4.6665H11.6673C11.9435 4.6665 12.1673 4.89036 12.1673 5.1665C12.1673 5.44265 11.9435 5.6665 11.6673 5.6665H2.33398C2.05784 5.6665 1.83398 5.44265 1.83398 5.1665Z"
        />
        <path fill-rule="evenodd" clip-rule="evenodd"
              d="M1.83398 1.1665C1.83398 0.890362 2.05784 0.666504 2.33398 0.666504H11.6673C11.9435 0.666504 12.1673 0.890362 12.1673 1.1665V11.8332C12.1673 12.3194 11.9742 12.7857 11.6303 13.1295C11.2865 13.4733 10.8202 13.6665 10.334 13.6665H3.66732C3.18109 13.6665 2.71477 13.4733 2.37096 13.1295C2.02714 12.7857 1.83398 12.3194 1.83398 11.8332V1.1665ZM2.83398 1.6665V11.8332C2.83398 12.0542 2.92178 12.2661 3.07806 12.4224C3.23434 12.5787 3.4463 12.6665 3.66732 12.6665H10.334C10.555 12.6665 10.767 12.5787 10.9232 12.4224C11.0795 12.2661 11.1673 12.0542 11.1673 11.8332V1.6665H2.83398Z"
        />
        <path fill-rule="evenodd" clip-rule="evenodd"
              d="M4.5 7.83301C4.5 7.55687 4.72386 7.33301 5 7.33301H5.66667C5.94281 7.33301 6.16667 7.55687 6.16667 7.83301C6.16667 8.10915 5.94281 8.33301 5.66667 8.33301H5C4.72386 8.33301 4.5 8.10915 4.5 7.83301ZM7.83333 7.83301C7.83333 7.55687 8.05719 7.33301 8.33333 7.33301H9C9.27614 7.33301 9.5 7.55687 9.5 7.83301C9.5 8.10915 9.27614 8.33301 9 8.33301H8.33333C8.05719 8.33301 7.83333 8.10915 7.83333 7.83301ZM4.5 10.4997C4.5 10.2235 4.72386 9.99967 5 9.99967H5.66667C5.94281 9.99967 6.16667 10.2235 6.16667 10.4997C6.16667 10.7758 5.94281 10.9997 5.66667 10.9997H5C4.72386 10.9997 4.5 10.7758 4.5 10.4997ZM7.83333 10.4997C7.83333 10.2235 8.05719 9.99967 8.33333 9.99967H9C9.27614 9.99967 9.5 10.2235 9.5 10.4997C9.5 10.7758 9.27614 10.9997 9 10.9997H8.33333C8.05719 10.9997 7.83333 10.7758 7.83333 10.4997Z"
        />
    </symbol>

    <symbol id="star" viewBox="0 0 14 14" xmlns="http://www.w3.org/2000/svg">
        <g clip-path="url(#clip0_2501_48)">
            <path d="M5.33874 3.1545C6.07782 1.82917 6.44707 1.1665 6.99949 1.1665C7.5519 1.1665 7.92115 1.82917 8.66024 3.1545L8.85157 3.4975C9.06157 3.87434 9.16657 4.06275 9.3299 4.187C9.49324 4.31125 9.6974 4.35734 10.1057 4.4495L10.4767 4.5335C11.9117 4.85842 12.6287 5.02059 12.7996 5.5695C12.9699 6.11784 12.4811 6.69009 11.5028 7.834L11.2497 8.12975C10.972 8.45467 10.8326 8.61742 10.7702 8.81809C10.7077 9.01934 10.7287 9.23634 10.7707 9.66975L10.8092 10.0647C10.9568 11.5913 11.0309 12.3543 10.5841 12.6932C10.1372 13.0327 9.46524 12.7229 8.1224 12.1046L7.77415 11.9448C7.39265 11.7686 7.2019 11.6811 6.99949 11.6811C6.79707 11.6811 6.60632 11.7686 6.22482 11.9448L5.87715 12.1046C4.53374 12.7229 3.86174 13.0321 3.41549 12.6938C2.96807 12.3543 3.04215 11.5913 3.18974 10.0647L3.22824 9.67034C3.27024 9.23634 3.29124 9.01934 3.22824 8.81867C3.1664 8.61742 3.02699 8.45467 2.74932 8.13034L2.49615 7.834C1.5179 6.69067 1.02907 6.11842 1.1994 5.5695C1.37032 5.02059 2.08782 4.85784 3.52282 4.5335L3.89382 4.4495C4.30157 4.35734 4.50515 4.31125 4.66907 4.187C4.8324 4.06275 4.9374 3.87434 5.1474 3.4975L5.33874 3.1545Z"
            />
        </g>
        <defs>
            <clipPath id="clip0_2501_48">
                <rect width="14" height="14" fill="white"/>
            </clipPath>
        </defs>
    </symbol>

    <symbol id="star-ico" viewBox="0 0 14 14" xmlns="http://www.w3.org/2000/svg">
        <path d="M5.33874 3.1545C6.07782 1.82917 6.44707 1.1665 6.99949 1.1665C7.5519 1.1665 7.92115 1.82917 8.66024 3.1545L8.85157 3.4975C9.06157 3.87434 9.16657 4.06275 9.3299 4.187C9.49324 4.31125 9.6974 4.35734 10.1057 4.4495L10.4767 4.5335C11.9117 4.85842 12.6287 5.02059 12.7996 5.5695C12.9699 6.11784 12.4811 6.69009 11.5028 7.834L11.2497 8.12975C10.972 8.45467 10.8326 8.61742 10.7702 8.81809C10.7077 9.01934 10.7287 9.23634 10.7707 9.66975L10.8092 10.0647C10.9568 11.5913 11.0309 12.3543 10.5841 12.6932C10.1372 13.0327 9.46524 12.7229 8.1224 12.1046L7.77415 11.9448C7.39265 11.7686 7.2019 11.6811 6.99949 11.6811C6.79707 11.6811 6.60632 11.7686 6.22482 11.9448L5.87715 12.1046C4.53374 12.7229 3.86174 13.0321 3.41549 12.6938C2.96807 12.3543 3.04215 11.5913 3.18974 10.0647L3.22824 9.67034C3.27024 9.23634 3.29124 9.01934 3.22824 8.81867C3.1664 8.61742 3.02699 8.45467 2.74932 8.13034L2.49615 7.834C1.5179 6.69067 1.02907 6.11842 1.1994 5.5695C1.37032 5.02059 2.08782 4.85784 3.52282 4.5335L3.89382 4.4495C4.30157 4.35734 4.50515 4.31125 4.66907 4.187C4.8324 4.06275 4.9374 3.87434 5.1474 3.4975L5.33874 3.1545Z"
        />
    </symbol>

    <symbol id="restart" viewBox="0 0 15 16" xmlns="http://www.w3.org/2000/svg">
        <path d="M7.50089 2.66657C8.81339 2.66657 10.0634 3.1999 11.0009 4.1999C12.9384 6.26657 12.9384 9.66657 11.0009 11.7332C9.87589 12.9999 8.31339 13.4666 6.81339 13.2666L7.12589 11.9332C8.18839 12.0666 9.31339 11.6666 10.1259 10.7999C11.5634 9.26657 11.5634 6.73324 10.1259 5.13324C9.43839 4.3999 8.43839 3.9999 7.50089 3.9999V7.06657L4.37589 3.73324L7.50089 0.399902V2.66657ZM3.93839 11.7332C2.31339 9.9999 2.06339 7.33324 3.18839 5.26657L4.12589 6.26657C3.43839 7.73323 3.68839 9.5999 4.87589 10.7999C5.18839 11.1332 5.56339 11.3999 6.00089 11.5999L5.62589 12.9332C5.00089 12.6666 4.43839 12.2666 3.93839 11.7332Z"
        />
    </symbol>

    <symbol id="share" width="14" height="14" viewBox="0 0 14 14" xmlns="http://www.w3.org/2000/svg">
        <path d="M1.86338 13.5625H0.437511V6.43489C0.436204 5.94798 0.548806 5.46753 0.76632 5.03191C1.06164 4.38021 1.53835 3.82731 2.13949 3.43929C2.74063 3.05126 3.44077 2.84451 4.15626 2.84375H7.89024V0.4375H9.04855L13.525 4.91395L9.03266 9.40625H7.89024V7H5.46179C4.95382 7.00124 4.46011 7.16807 4.05552 7.47521C3.65093 7.78236 3.35752 8.21305 3.21979 8.70198L1.86338 13.5625ZM4.15626 3.71875C3.60783 3.71934 3.07122 3.87817 2.61082 4.17618C2.15043 4.47419 1.7858 4.89872 1.56071 5.39883L1.55273 5.41562C1.39377 5.73181 1.31148 6.08099 1.31251 6.43489V12.2813L2.377 8.4668C2.5665 7.79406 2.97019 7.20145 3.52688 6.77885C4.08356 6.35624 4.76287 6.12669 5.46179 6.125H8.76524V8.43623L12.2876 4.91395L8.76524 1.39163V3.71875H4.15626Z"
        />
    </symbol>
    <symbol id="dropdown-ico" viewBox="0 0 12 9" xmlns="http://www.w3.org/2000/svg">
        <path d="M6 9L11.1962 0H0.803848L6 9Z"/>
    </symbol>
</svg>